<?xml version="1.0" encoding="UTF-8" standalone="no"?>
<!DOCTYPE svg PUBLIC "-//W3C//DTD SVG 1.1//EN" "http://www.w3.org/Graphics/SVG/1.1/DTD/svg11.dtd">
<svg width="100%" height="100%" viewBox="0 0 1347 782" version="1.1" xmlns="http://www.w3.org/2000/svg" xmlns:xlink="http://www.w3.org/1999/xlink" xml:space="preserve" xmlns:serif="http://www.serif.com/" style="fill-rule:evenodd;clip-rule:evenodd;stroke-linejoin:round;stroke-miterlimit:2;">
    <g transform="matrix(6.984614,0,0,6.984614,-1109.692359,-874.870517)">
        <path d="M265.57,222.825C270.262,221.938 297.961,216.702 316.108,191.054C332.305,168.161 309.145,226.822 257.496,228.294C227.759,229.141 185.859,196.072 160.83,233.901C157.597,238.788 158.486,231.411 163.84,225.792C192.683,195.518 234.982,225.456 224.115,214.699C178.7,169.743 225.433,119.46 262.408,125.886C298.191,132.105 304.456,162.838 298.138,152.959C296.146,149.844 283.025,129.329 258.504,129.174C192.382,128.757 194.78,233.15 265.57,222.825Z" style="fill:rgb(101,136,98);stroke:rgb(101,136,98);stroke-width:0.14px;"/>
    </g>
    <g transform="matrix(6.984614,0,0,6.984614,-1109.692359,-874.870517)">
        <path d="M298.495,237.111C277.781,235.444 276.931,231.981 278.535,231.563C279.987,231.183 319.653,245.081 340.177,204.327C351.497,181.849 347.103,146.955 343.579,148.732C339.917,150.579 337.68,157.932 314.41,164.212C303.428,167.175 292.429,168.489 278.952,180.955C265.732,193.182 268.293,213.92 267.407,214.193C265.731,214.71 257.147,178.332 300.605,163.784C325.535,155.438 328.285,159.201 343.633,141.618C347.473,137.218 349.185,145.95 349.3,146.54C355.607,178.715 352.139,231.876 298.495,237.111Z" style="fill:rgb(101,136,98);stroke:rgb(101,136,98);stroke-width:0.14px;"/>
    </g>
    <g transform="matrix(6.984614,0,0,6.984614,-1109.692359,-874.870517)">
        <path d="M225.206,171.113C224.935,170.974 223.654,171.066 223.668,169.471C223.857,148.041 250.665,138.854 250.681,143.495C250.698,148.269 234.067,141.597 225.206,171.113Z" style="fill:rgb(101,136,98);stroke:rgb(101,136,98);stroke-width:0.14px;"/>
    </g>
</svg>
